<?xml version="1.0" standalone="no"?>
<!DOCTYPE svg PUBLIC "-//W3C//DTD SVG 20010904//EN"
 "http://www.w3.org/TR/2001/REC-SVG-20010904/DTD/svg10.dtd">
<svg version="1.0" xmlns="http://www.w3.org/2000/svg"
 width="501.000000pt" height="501.000000pt" viewBox="0 0 501.000000 501.000000"
 preserveAspectRatio="xMidYMid meet">
<metadata>
Created by potrace 1.11, written by Peter Selinger 2001-2013
</metadata>
<g transform="translate(0.000000,501.000000) scale(0.100000,-0.100000)"
fill="#000000" stroke="none">
<path d="M2338 5005 c-2 -1 -40 -6 -85 -9 -46 -4 -93 -9 -105 -11 -13 -3 -34
-7 -48 -9 -14 -3 -41 -8 -60 -10 -98 -15 -363 -91 -455 -131 -237 -103 -388
-184 -515 -278 -121 -89 -148 -111 -220 -175 -314 -278 -562 -643 -701 -1032
-25 -71 -66 -209 -74 -248 -1 -9 -8 -35 -13 -57 -6 -22 -16 -74 -22 -115 -6
-41 -13 -86 -16 -100 -23 -139 -22 -517 0 -650 3 -14 7 -42 10 -63 49 -326
196 -704 381 -982 87 -131 86 -129 197 -259 324 -382 771 -661 1256 -787 62
-16 127 -31 145 -34 18 -3 39 -8 47 -10 8 -2 35 -6 60 -9 25 -3 55 -8 66 -10
39 -8 221 -18 316 -19 662 -2 1290 256 1759 722 184 184 296 329 414 535 147
257 274 615 300 851 4 33 9 63 11 66 7 12 18 220 18 339 0 1140 -780 2134
-1894 2414 -75 19 -174 39 -221 46 -46 6 -100 13 -119 16 -36 6 -426 14 -432
9z"/>
</g>
</svg>
